<mxfile host="65bd71144e">
    <diagram id="w-7CJyka5zCctE4Li5eL" name="Page-1">
        <mxGraphModel dx="1581" dy="715" grid="1" gridSize="10" guides="1" tooltips="1" connect="1" arrows="1" fold="1" page="1" pageScale="1" pageWidth="850" pageHeight="1100" math="0" shadow="0">
            <root>
                <mxCell id="0"/>
                <mxCell id="1" parent="0"/>
                <mxCell id="4" value="" style="ellipse;whiteSpace=wrap;html=1;aspect=fixed;strokeWidth=3;fillColor=none;strokeColor=#0000FF;" parent="1" vertex="1">
                    <mxGeometry x="120" y="260" width="80" height="80" as="geometry"/>
                </mxCell>
                <mxCell id="5" value="" style="group" parent="1" vertex="1" connectable="0">
                    <mxGeometry x="120" y="160" width="300" height="190" as="geometry"/>
                </mxCell>
                <mxCell id="31" value="" style="rounded=0;whiteSpace=wrap;html=1;fillColor=#CCCCCC;strokeColor=#333333;" vertex="1" parent="5">
                    <mxGeometry x="-10" y="-10" width="310" height="200" as="geometry"/>
                </mxCell>
                <mxCell id="2" value="" style="ellipse;whiteSpace=wrap;html=1;aspect=fixed;strokeWidth=3;fillColor=#a20025;fontColor=#ffffff;strokeColor=#6F0000;" parent="5" vertex="1">
                    <mxGeometry width="80" height="80" as="geometry"/>
                </mxCell>
                <mxCell id="3" value="" style="shape=flexArrow;endArrow=classic;html=1;strokeWidth=3;strokeColor=default;fillColor=#E6E6E6;" parent="5" edge="1">
                    <mxGeometry width="50" height="50" relative="1" as="geometry">
                        <mxPoint x="70" y="39.5" as="sourcePoint"/>
                        <mxPoint x="10" y="39.5" as="targetPoint"/>
                    </mxGeometry>
                </mxCell>
                <mxCell id="6" value="" style="group;rotation=90;" parent="1" vertex="1" connectable="0">
                    <mxGeometry x="330" y="260" width="80" height="80" as="geometry"/>
                </mxCell>
                <mxCell id="7" value="" style="ellipse;whiteSpace=wrap;html=1;aspect=fixed;strokeWidth=3;fillColor=#a20025;fontColor=#ffffff;strokeColor=#6F0000;rotation=90;" parent="6" vertex="1">
                    <mxGeometry width="80" height="80" as="geometry"/>
                </mxCell>
                <mxCell id="8" value="" style="shape=flexArrow;endArrow=classic;html=1;strokeWidth=3;strokeColor=default;fillColor=#E6E6E6;" parent="6" edge="1">
                    <mxGeometry width="50" height="50" relative="1" as="geometry">
                        <mxPoint x="41" y="70" as="sourcePoint"/>
                        <mxPoint x="41" y="10" as="targetPoint"/>
                    </mxGeometry>
                </mxCell>
                <mxCell id="9" value="" style="group;rotation=-180;" parent="1" vertex="1" connectable="0">
                    <mxGeometry x="300" y="160" width="80" height="80" as="geometry"/>
                </mxCell>
                <mxCell id="10" value="" style="ellipse;whiteSpace=wrap;html=1;aspect=fixed;strokeWidth=3;fillColor=#a20025;fontColor=#ffffff;strokeColor=#6F0000;rotation=-180;" parent="9" vertex="1">
                    <mxGeometry width="80" height="80" as="geometry"/>
                </mxCell>
                <mxCell id="11" value="" style="shape=flexArrow;endArrow=classic;html=1;strokeWidth=3;strokeColor=default;fillColor=#E6E6E6;" parent="9" edge="1">
                    <mxGeometry width="50" height="50" relative="1" as="geometry">
                        <mxPoint x="10" y="41" as="sourcePoint"/>
                        <mxPoint x="70" y="41" as="targetPoint"/>
                    </mxGeometry>
                </mxCell>
                <mxCell id="15" value="" style="group;rotation=-90;" parent="1" vertex="1" connectable="0">
                    <mxGeometry x="210" y="160" width="80" height="80" as="geometry"/>
                </mxCell>
                <mxCell id="16" value="" style="ellipse;whiteSpace=wrap;html=1;aspect=fixed;strokeWidth=3;fillColor=#a20025;fontColor=#ffffff;strokeColor=#6F0000;rotation=-90;" parent="15" vertex="1">
                    <mxGeometry width="80" height="80" as="geometry"/>
                </mxCell>
                <mxCell id="17" value="" style="shape=flexArrow;endArrow=classic;html=1;strokeWidth=3;strokeColor=default;fillColor=#E6E6E6;" parent="15" edge="1">
                    <mxGeometry width="50" height="50" relative="1" as="geometry">
                        <mxPoint x="40" y="10" as="sourcePoint"/>
                        <mxPoint x="40" y="70" as="targetPoint"/>
                    </mxGeometry>
                </mxCell>
                <mxCell id="18" value="" style="ellipse;whiteSpace=wrap;html=1;aspect=fixed;strokeWidth=3;fillColor=none;strokeColor=#0000FF;" parent="1" vertex="1">
                    <mxGeometry x="210" y="450" width="80" height="80" as="geometry"/>
                </mxCell>
                <mxCell id="19" value="&lt;font style=&quot;font-size: 36px;&quot; face=&quot;Verdana&quot;&gt;N&lt;/font&gt;" style="text;strokeColor=none;align=center;fillColor=none;html=1;verticalAlign=middle;whiteSpace=wrap;rounded=0;fontSize=36;labelBorderColor=none;fontColor=#CCCCCC;" parent="1" vertex="1">
                    <mxGeometry x="210" y="465" width="80" height="50" as="geometry"/>
                </mxCell>
                <mxCell id="22" value="" style="ellipse;whiteSpace=wrap;html=1;aspect=fixed;strokeWidth=3;fillColor=none;strokeColor=#0000FF;" parent="1" vertex="1">
                    <mxGeometry x="120" y="355" width="80" height="80" as="geometry"/>
                </mxCell>
                <mxCell id="21" value="&lt;font style=&quot;font-size: 36px;&quot; face=&quot;Verdana&quot;&gt;P&lt;/font&gt;" style="text;strokeColor=none;align=center;fillColor=none;html=1;verticalAlign=middle;whiteSpace=wrap;rounded=0;fontSize=36;labelBorderColor=none;fontColor=#CCCCCC;" parent="1" vertex="1">
                    <mxGeometry x="120" y="370" width="80" height="50" as="geometry"/>
                </mxCell>
                <mxCell id="23" value="" style="ellipse;whiteSpace=wrap;html=1;aspect=fixed;strokeWidth=3;fillColor=none;strokeColor=#0000FF;" parent="1" vertex="1">
                    <mxGeometry x="210" y="355" width="80" height="80" as="geometry"/>
                </mxCell>
                <mxCell id="20" value="&lt;font style=&quot;font-size: 36px;&quot; face=&quot;Verdana&quot;&gt;K&lt;/font&gt;" style="text;strokeColor=none;align=center;fillColor=none;html=1;verticalAlign=middle;whiteSpace=wrap;rounded=0;fontSize=36;labelBorderColor=none;fontColor=#CCCCCC;" parent="1" vertex="1">
                    <mxGeometry x="210" y="370" width="80" height="50" as="geometry"/>
                </mxCell>
                <mxCell id="26" value="" style="group;fillColor=none;" parent="1" vertex="1" connectable="0">
                    <mxGeometry x="120" y="450" width="80" height="80" as="geometry"/>
                </mxCell>
                <mxCell id="24" value="" style="ellipse;whiteSpace=wrap;html=1;aspect=fixed;strokeWidth=3;fillColor=none;strokeColor=#0000FF;" parent="26" vertex="1">
                    <mxGeometry width="80" height="80" as="geometry"/>
                </mxCell>
                <mxCell id="25" value="&lt;font face=&quot;Verdana&quot; style=&quot;font-size: 48px;&quot;&gt;é›¢&lt;br style=&quot;font-size: 48px;&quot;&gt;&lt;/font&gt;" style="text;strokeColor=none;align=center;fillColor=none;html=1;verticalAlign=middle;whiteSpace=wrap;rounded=0;fontSize=48;labelBorderColor=none;fontColor=#1A1A1A;labelBackgroundColor=none;" parent="26" vertex="1">
                    <mxGeometry y="15" width="80" height="50" as="geometry"/>
                </mxCell>
                <mxCell id="28" value="" style="shape=flexArrow;endArrow=classic;html=1;endWidth=41;endSize=9;strokeWidth=10;fillColor=#e3c800;strokeColor=#B09500;gradientColor=default;gradientDirection=east;opacity=70;shadow=1;" parent="1" edge="1">
                    <mxGeometry width="50" height="50" relative="1" as="geometry">
                        <mxPoint x="360" y="60" as="sourcePoint"/>
                        <mxPoint x="120" y="60" as="targetPoint"/>
                        <Array as="points">
                            <mxPoint x="210" y="60"/>
                        </Array>
                    </mxGeometry>
                </mxCell>
                <mxCell id="29" value="" style="shape=flexArrow;endArrow=classic;html=1;endWidth=41;endSize=9;strokeWidth=10;fillColor=#e3c800;strokeColor=#B09500;gradientColor=default;gradientDirection=west;opacity=70;shadow=1;" parent="1" edge="1">
                    <mxGeometry width="50" height="50" relative="1" as="geometry">
                        <mxPoint x="170" y="100" as="sourcePoint"/>
                        <mxPoint x="410" y="100" as="targetPoint"/>
                        <Array as="points">
                            <mxPoint x="260" y="100"/>
                        </Array>
                    </mxGeometry>
                </mxCell>
            </root>
        </mxGraphModel>
    </diagram>
</mxfile>